<?xml version="1.0" encoding="utf-8"?>
<!-- Generator: Adobe Illustrator 23.1.0, SVG Export Plug-In . SVG Version: 6.00 Build 0)  -->
<svg version="1.1" id="Layer_1" xmlns="http://www.w3.org/2000/svg" xmlns:xlink="http://www.w3.org/1999/xlink" x="0px" y="0px"
	 viewBox="0 0 595.28 841.89" style="enable-background:new 0 0 595.28 841.89;" xml:space="preserve">
<style type="text/css">
	.st0{fill:#27AAE1;}
	.st1{fill:#58595B;}
</style>
<g>
	<path class="st0" d="M343.34,378.91c0.93,0.92,2.01,2.1,3.05,3.61c1.01,1.52,1.96,3.4,2.26,5.59c0.13,1.04,0.09,2.13-0.12,3.22
		h2.04c0.1-1.24,0.02-2.44-0.22-3.55c-0.59-2.54-1.87-4.48-3.09-5.96c-1.26-1.47-2.51-2.53-3.56-3.34c-0.7-0.54-1.31-0.96-1.82-1.29
		c-0.03,0.08-0.07,0.17-0.11,0.25C342.2,377.83,342.73,378.31,343.34,378.91z"/>
	<path class="st1" d="M337.55,409.31v-12.63h8.3h3h9.21c0.78,0,1.4-0.65,1.4-1.45v-2.45c0-0.8-0.63-1.45-1.4-1.45h-7.49h-2.04
		h-10.97v-9.41c1.86-0.94,3.35-2.53,4.21-4.48c0.04-0.08,0.08-0.16,0.11-0.25c0.44-1.09,0.69-2.29,0.69-3.55
		c0-5.09-4.01-9.23-8.94-9.23c-4.93,0-8.94,4.14-8.94,9.23c0,3.37,1.76,6.31,4.37,7.92v9.77h-20.9c-0.78,0-1.4,0.65-1.4,1.45v2.45
		c0,0.8,0.63,1.45,1.4,1.45h20.9l0.16,20.57c1.58-1.22,3.17-5.14,4.71-6.31C335.2,409.95,336.29,410.25,337.55,409.31z
		 M328.77,373.65c0-2.76,2.17-5,4.84-5c2.67,0,4.84,2.24,4.84,5c0,2.76-2.17,5-4.84,5C330.94,378.65,328.77,376.41,328.77,373.65z"
		/>
	<path class="st1" d="M366.76,438.67l3.98,3.02c-9.43,13.99-27.09,16.73-27.09,16.73c-6.5-5.8-6.11-16.59-6.11-16.59v-33.75
		c-0.6,0.49-1.21,0.97-1.82,1.47c-2.15,1.74-4.4,3.53-6.68,5.33v26.95c0,0,0.19,5.13-1.83,10.22l-0.29,0.7
		c-0.9,2.05-2.17,4.05-3.99,5.67c0,0-17.66-2.74-27.09-16.73l3.98-3.02l-11.42-6.31c0,0,0.13,13.85,16.46,25.37
		c0,0,20.18,10.01,28.41,19.75c8.23-9.74,28.41-19.75,28.41-19.75c16.33-11.52,16.46-25.37,16.46-25.37L366.76,438.67z"/>
	<g>
		<path class="st0" d="M221.75,398.5l-11.41,19.24v13.03h-7.51v-12.93l-11.31-19.34h8.52l6.6,12.63l6.55-12.63H221.75z"/>
		<path class="st0" d="M254.19,430.76h-7.61l-2.79-8.5h-11.41l-2.74,8.5h-7.41l11.55-32.26h9.15L254.19,430.76z M242.16,417.09
			l-3.95-12.13h-0.19l-3.95,12.13H242.16z"/>
		<path class="st0" d="M281.58,430.17c-3.53,0.73-6.9,1.09-10.11,1.09c-1.28,0-2.5-0.06-3.63-0.17c-1.14-0.12-2.41-0.36-3.8-0.75
			c-1.4-0.38-2.58-0.89-3.56-1.54c-0.98-0.65-1.8-1.56-2.48-2.73c-0.67-1.18-1.01-2.56-1.01-4.15v-14.17c0-6.5,4.83-9.74,14.49-9.74
			c2.37,0,5.68,0.37,9.92,1.09v5.82c-3.82-0.93-7.09-1.39-9.82-1.39c-1.09,0-1.98,0.03-2.67,0.1c-0.69,0.07-1.41,0.23-2.17,0.5
			c-0.75,0.27-1.32,0.69-1.68,1.27c-0.37,0.58-0.55,1.33-0.55,2.26v13.72c0,2.92,2.58,4.37,7.75,4.37c2.28,0,5.39-0.48,9.34-1.44
			V430.17z"/>
		<path class="st0" d="M314.7,430.76h-7.51v-13.82h-13.29v13.82h-7.51V398.5h7.51v12.93h13.29V398.5h7.51V430.76z"/>
		<path class="st0" d="M374.39,430.76h-24.31V398.5h23.83v5.52h-16.32v7.41h14.73v5.52h-14.73v8.3h16.8V430.76z"/>
		<path class="st0" d="M403.76,430.76h-24.31V398.5h23.83v5.52h-16.32v7.41h14.73v5.52h-14.73v8.3h16.8V430.76z"/>
	</g>
	<path class="st0" d="M330.09,452.66c-1.87-1.38-4.11-3.17-6.31-5.61c-1.52-1.7-2.97-3.77-4.01-6.19c-1.04-2.41-1.67-5.2-1.33-8.02
		c0.3-2.84,1.6-5.63,3.48-8.21c1.89-2.59,4.32-4.98,6.93-7.36c0.47-0.43,0.94-0.85,1.41-1.28c2.16-1.95,4.29-3.89,6.32-5.77
		c0.58-0.54,1.15-1.07,1.72-1.6c1.87-1.73,3.68-3.41,5.42-5.16c0.58-0.6,1.15-1.22,1.69-1.84c1.37-1.59,2.56-3.3,3.43-5.13
		l-2.99,0.21c-0.81,1.15-1.77,2.27-2.86,3.36c-0.41,0.41-0.83,0.82-1.27,1.23c-1.15,1.05-2.4,2.13-3.68,3.23
		c-1.19,1.02-2.41,2.06-3.62,3.14c-1.46,1.27-2.94,2.58-4.44,3.91c-1.13,1-2.26,2.01-3.41,3.04c-2.68,2.45-5.26,5.03-7.32,8.02
		c-2.05,2.96-3.53,6.44-3.71,9.95c-0.23,3.52,0.76,6.76,2.12,9.37c1.37,2.63,3.14,4.73,4.92,6.38c2.66,2.44,5.22,4.03,7.3,5.21
		c0.25,0.14,0.49,0.28,0.73,0.41l0.25-0.72C330.6,453.03,330.35,452.85,330.09,452.66z"/>
</g>
</svg>
